<svg width="24" height="21" viewBox="0 0 24 21" fill="none" xmlns="http://www.w3.org/2000/svg">
<path fill-rule="evenodd" clip-rule="evenodd" d="M-8.21774e-08 5.01336C-3.67921e-08 4.49422 0.420852 4.07336 0.94 4.07336L10.9667 4.07337C11.4858 4.07337 11.9067 4.49422 11.9067 5.01337C11.9067 5.53251 11.4858 5.95337 10.9667 5.95337L0.94 5.95336C0.420852 5.95336 -1.27563e-07 5.53251 -8.21774e-08 5.01336Z" fill="#7B7B7B"/>
<path fill-rule="evenodd" clip-rule="evenodd" d="M23.5 15.6667C23.5 15.1475 23.0791 14.7267 22.56 14.7267L12.5333 14.7267C12.0142 14.7267 11.5933 15.1475 11.5933 15.6667C11.5933 16.1858 12.0142 16.6067 12.5333 16.6067L22.56 16.6067C23.0791 16.6067 23.5 16.1858 23.5 15.6667Z" fill="#7B7B7B"/>
<path fill-rule="evenodd" clip-rule="evenodd" d="M18.8001 7.52C20.3575 7.52 21.6201 6.25744 21.6201 4.7C21.6201 3.14256 20.3575 1.88 18.8001 1.88C17.2427 1.88 15.9801 3.14256 15.9801 4.7C15.9801 6.25744 17.2427 7.52 18.8001 7.52ZM18.8001 9.4C21.3958 9.4 23.5001 7.29574 23.5001 4.7C23.5001 2.10426 21.3958 0 18.8001 0C16.2044 0 14.1001 2.10426 14.1001 4.7C14.1001 7.29574 16.2044 9.4 18.8001 9.4Z" fill="#7B7B7B"/>
<path fill-rule="evenodd" clip-rule="evenodd" d="M4.6999 18.1733C3.14246 18.1733 1.8799 16.9108 1.8799 15.3533C1.8799 13.7959 3.14246 12.5333 4.6999 12.5333C6.25735 12.5333 7.5199 13.7959 7.5199 15.3533C7.5199 16.9108 6.25735 18.1733 4.6999 18.1733ZM4.6999 20.0533C2.10416 20.0533 -9.72748e-05 17.9491 -9.72748e-05 15.3533C-9.72748e-05 12.7576 2.10416 10.6533 4.6999 10.6533C7.29564 10.6533 9.3999 12.7576 9.3999 15.3533C9.3999 17.9491 7.29564 20.0533 4.6999 20.0533Z" fill="#7B7B7B"/>
</svg>
